<svg width="44" height="44" viewBox="0 0 44 44" fill="none" xmlns="http://www.w3.org/2000/svg">
<path d="M7.4929 38.5392C6.91809 38.0344 6.3697 37.5002 5.85002 36.939C5.63224 36.7038 5.41951 36.4638 5.21214 36.2191C1.96075 32.3846 0 27.4213 0 22C0 9.84983 9.84983 0 22 0C34.1502 0 44 9.84983 44 22C44 27.4214 42.0392 32.3846 38.7878 36.2191C38.5804 36.4638 38.3677 36.7038 38.1499 36.939C37.6302 37.5002 37.0819 38.0344 36.5071 38.5392H7.4929Z" fill="#4762E5"/>
<path d="M36.507 38.5392C32.6343 41.9388 27.5576 44 22 44C16.4424 44 11.3656 41.9388 7.49292 38.5392C10.7505 33.3682 16.0347 30.0061 22 30.0061C27.9653 30.0061 33.2494 33.3683 36.507 38.5392Z" fill="#091655"/>
<path d="M22.0001 26.3292C26.9074 26.3292 30.8856 22.351 30.8856 17.4436C30.8856 12.5362 26.9074 8.55802 22.0001 8.55802C17.0927 8.55802 13.1145 12.5362 13.1145 17.4436C13.1145 22.351 17.0927 26.3292 22.0001 26.3292Z" fill="#091655"/>
</svg>
