<svg width="47" height="44" viewBox="0 0 47 44" fill="none" xmlns="http://www.w3.org/2000/svg">
<path d="M11.2451 33.74V36.652C11.6471 36.552 11.9481 36.351 12.1491 36.15C12.3501 35.849 12.5511 35.547 12.5511 35.146C12.5511 34.845 12.4501 34.543 12.2491 34.343C12.0491 34.041 11.7471 33.841 11.2451 33.74Z" fill="#B7FF00"/>
<path d="M46.7941 21.1881V14.8621H20.4841H13.4541V21.1881H14.3581H44.2831H46.7941Z" fill="#B7FF00"/>
<path d="M16.1661 22.3929C16.2671 22.4939 16.3671 22.4939 16.4671 22.5939C16.5681 22.5939 16.5681 22.6949 16.6681 22.6949C16.7691 22.6949 16.7691 22.7959 16.8691 22.7959L16.9691 22.8959C17.0701 22.8959 17.0701 22.9969 17.1701 22.9969L17.2701 23.0979L17.3701 23.1979H17.4711C17.5711 23.1979 17.5711 23.2989 17.6721 23.2989H17.7731C17.8731 23.2989 17.8731 23.3999 17.9741 23.3999H18.0751C18.1751 23.3999 18.1751 23.4999 18.2761 23.4999L18.4771 23.7009L18.5781 23.8009L18.6791 23.9019C18.7791 23.9019 18.7791 24.0029 18.8801 24.0029C18.9801 24.0029 18.9801 24.1029 19.0811 24.1029L19.1821 24.2039L19.2821 24.3039L19.3821 24.4049L19.4831 24.5059L19.5831 24.6069C19.6841 24.7069 19.6841 24.7069 19.7841 24.8079C19.7841 24.9079 19.8841 24.9079 19.8841 25.0089C19.8841 25.1099 19.9851 25.1099 19.9851 25.2099V25.3109C19.9851 25.4119 20.0861 25.4119 20.0861 25.5119L20.1861 25.6129C20.1861 25.7139 20.2871 25.7139 20.2871 25.8139C20.2871 25.9149 20.3871 25.9149 20.3871 26.0149C20.3871 26.1149 20.4871 26.1149 20.4871 26.2159V26.3169C20.4871 26.4169 20.5881 26.4169 20.5881 26.5179L20.7891 26.8189C20.7891 26.9199 20.8901 26.9199 20.8901 27.0199V27.1209L20.9911 27.2209L21.0911 27.4219C21.0911 27.4219 21.0911 27.5219 21.1921 27.5219V27.6229C21.1921 27.7239 21.2921 27.7239 21.2921 27.8239V27.9249C21.2921 28.0259 21.3921 28.0259 21.3921 28.1259V28.2269C21.3921 28.3279 21.4931 28.3279 21.4931 28.4279V28.5279C21.4931 28.5279 21.4931 28.6289 21.5941 28.6289H43.4851V22.3929H15.8701C15.9651 22.3929 16.0651 22.3929 16.1661 22.3929Z" fill="#B7FF00"/>
<path d="M21.0859 13.757H47.3959H49.8059V7.43103H39.8649H21.0859V13.757Z" fill="#B7FF00"/>
<path d="M39.362 6.225V0H10.542V6.225H20.484H39.362Z" fill="#B7FF00"/>
<path d="M9.53806 29.322C9.33706 29.523 9.23706 29.824 9.23706 30.126C9.23706 30.428 9.33705 30.628 9.43805 30.829C9.63905 31.03 9.84005 31.231 10.1411 31.331V28.821C9.94005 28.92 9.63906 29.02 9.53806 29.322Z" fill="#B7FF00"/>
<path d="M44.2829 29.723H22.1909C22.2909 29.924 22.2909 30.125 22.2909 30.225V30.326C22.2909 30.427 22.2909 30.427 22.2909 30.527V30.628C22.2909 30.729 22.2909 30.829 22.3909 30.929C22.3909 31.03 22.3909 31.03 22.3909 31.13C22.3909 31.231 22.3909 31.231 22.3909 31.331C22.3909 31.432 22.3909 31.532 22.3909 31.532V31.633C22.3909 31.733 22.3909 31.834 22.3909 31.934V32.035C22.3909 32.136 22.3909 32.236 22.3909 32.336V32.437C22.3909 32.537 22.3909 32.638 22.3909 32.838C22.3909 32.939 22.3909 33.039 22.3909 33.139V33.24C22.3909 33.341 22.3909 33.441 22.3909 33.441V33.542C22.3909 33.643 22.3909 33.743 22.3909 33.743V33.844C22.3909 33.945 22.3909 34.045 22.3909 34.145C22.3909 34.145 22.3909 34.145 22.3909 34.245C22.3909 34.346 22.3909 34.446 22.3909 34.546V34.647C22.3909 34.748 22.3909 34.748 22.3909 34.848C22.3909 34.948 22.3909 34.948 22.3909 35.049C22.3909 35.149 22.3909 35.149 22.3909 35.25C22.3909 35.351 22.3909 35.351 22.3909 35.451V35.552C22.3909 35.653 22.3909 35.653 22.3909 35.753H45.9889H53.0179V29.527L44.2829 29.723Z" fill="#B7FF00"/>
<path d="M21.8899 37.3551C21.8899 37.4551 21.7889 37.4551 21.7889 37.5561C21.7889 37.6571 21.6879 37.7571 21.6879 37.8571C21.6879 37.9581 21.5879 38.0581 21.5879 38.1581C21.5879 38.1581 21.5879 38.2591 21.4869 38.2591C21.3859 38.3591 21.3859 38.5601 21.2859 38.6611C21.2859 38.6611 21.2859 38.6611 21.2859 38.7611C21.1859 38.8621 21.0849 39.0621 21.0849 39.1631C20.4819 40.1671 19.6789 41.1711 18.7749 41.9751C18.6749 42.0761 18.5739 42.1761 18.3729 42.2761C18.3729 42.2761 18.2729 42.2761 18.2729 42.3771C18.1719 42.4781 18.0719 42.4781 17.9719 42.5781C17.8709 42.6791 17.7709 42.6791 17.7709 42.7791C17.6699 42.7791 17.6699 42.8801 17.5699 42.8801C17.2689 43.0811 16.8669 43.3821 16.5659 43.4831H45.2849V37.2571H21.8879C21.8899 37.2551 21.8899 37.2551 21.8899 37.3551Z" fill="#B7FF00"/>
<path d="M16.969 41.774C17.07 41.774 17.07 41.673 17.17 41.673C17.27 41.573 17.371 41.573 17.471 41.472C17.471 41.472 17.571 41.472 17.571 41.371C17.672 41.271 17.772 41.17 17.872 41.07C18.776 40.267 19.579 39.363 20.082 38.359C20.182 38.259 20.182 38.058 20.283 37.958V37.857C20.383 37.757 20.383 37.656 20.484 37.556C20.484 37.456 20.484 37.456 20.585 37.355C20.585 37.254 20.686 37.154 20.686 37.054C20.686 36.954 20.786 36.953 20.786 36.853C20.786 36.752 20.887 36.652 20.887 36.652C20.887 36.552 20.988 36.451 20.988 36.351V36.251C20.988 36.15 21.088 36.05 21.088 35.95C21.088 35.849 21.088 35.849 21.189 35.749C21.189 35.649 21.189 35.649 21.189 35.548C21.189 35.447 21.189 35.347 21.289 35.247V35.146C21.289 35.046 21.289 34.945 21.389 34.845V34.744C21.389 34.643 21.389 34.543 21.389 34.443V34.342C21.389 34.242 21.389 34.141 21.389 34.041C21.389 34.041 21.389 34.041 21.389 33.941C21.389 33.84 21.389 33.74 21.389 33.539V33.438C21.389 33.338 21.389 33.137 21.389 33.037C21.389 32.936 21.389 32.736 21.389 32.635V32.535C21.389 32.434 21.389 32.233 21.389 32.133V32.032C21.389 31.932 21.389 31.731 21.389 31.631V31.53C21.389 31.429 21.389 31.329 21.389 31.229C21.389 31.128 21.389 31.128 21.389 31.028C21.389 30.927 21.389 30.827 21.289 30.727C21.289 30.626 21.289 30.626 21.289 30.526C21.289 30.426 21.289 30.325 21.189 30.225C21.189 30.125 21.189 30.125 21.088 30.024V29.923C21.088 29.823 20.988 29.622 20.988 29.522C20.988 29.522 20.988 29.522 20.988 29.421C19.582 25.203 15.465 22.191 10.745 22.191C4.81999 22.191 0 27.011 0 32.936C0 38.861 4.81999 43.781 10.745 43.781C12.753 43.781 14.661 43.178 16.369 42.275C16.469 42.174 16.67 42.074 16.77 42.074C16.768 41.874 16.869 41.874 16.969 41.774ZM13.555 37.155C13.053 37.757 12.249 38.159 11.245 38.259V39.665H10.141V38.259C9.33799 38.158 8.63498 37.857 8.03198 37.355C7.52998 36.853 7.12798 36.049 7.02798 35.145L8.93597 34.944C9.03597 35.346 9.13698 35.647 9.33798 35.948C9.53898 36.249 9.83998 36.45 10.041 36.551V33.438C9.03699 33.137 8.33398 32.735 7.93198 32.233C7.53098 31.631 7.229 31.028 7.229 30.225C7.229 29.422 7.52998 28.719 8.03198 28.217C8.53398 27.715 9.23698 27.313 10.04 27.313V26.409H11.145V27.112C11.949 27.213 12.551 27.513 13.053 27.915C13.555 28.317 13.856 28.919 13.957 29.723L12.049 29.924C11.949 29.322 11.648 28.92 11.145 28.719V31.632C12.35 31.933 13.153 32.335 13.555 32.837C13.957 33.34 14.158 34.042 14.158 34.846C14.358 35.748 14.057 36.552 13.555 37.155Z" fill="#B7FF00"/>
</svg>
