<svg width="53" height="53" viewBox="0 0 53 53" fill="none" xmlns="http://www.w3.org/2000/svg">
<path d="M10.132 19.278C10.031 19.278 9.92995 19.278 9.82895 19.278H9.72797H9.62695V21.297H30.2169V14.635H17.701C15.986 17.259 13.26 18.975 10.132 19.278ZM26.2809 16.855H28.5009V19.076H26.2809V16.855ZM22.849 16.855H25.0699V19.076H22.849V16.855ZM19.417 16.855H21.638V19.076H19.417V16.855Z" fill="#B7FF00"/>
<path d="M18.2061 9.08398C18.2061 8.98198 18.2061 8.78099 18.2061 8.67999C18.2061 8.57899 18.2061 8.579 18.2061 8.479C17.9031 3.735 13.9671 0 9.12207 0C4.07607 0 0.0380859 4.03698 0.0380859 9.08398C0.0380859 14.131 4.17607 18.168 9.12207 18.168C9.22307 18.168 9.42509 18.168 9.52609 18.168H9.62708C14.3701 17.865 18.2061 13.928 18.2061 9.08398ZM14.3701 6.76099L6.59808 12.413C6.49708 12.515 6.39607 12.515 6.29507 12.515C6.09307 12.515 5.89108 12.413 5.79108 12.313L3.67108 9.38599C3.46908 9.08299 3.57006 8.781 3.77206 8.578C4.07506 8.376 4.37707 8.47699 4.57907 8.67899L6.39609 11L13.6631 5.75198C13.9661 5.54998 14.2681 5.651 14.4701 5.853C14.6741 6.156 14.5721 6.55999 14.3701 6.76099Z" fill="#B7FF00"/>
<path d="M44.247 52.182C43.742 51.577 43.3391 50.869 43.1371 50.063C43.1371 49.961 43.137 49.861 43.036 49.76C43.036 49.658 43.036 49.558 43.036 49.558C43.036 49.558 43.036 49.558 43.036 49.456C43.036 49.355 43.036 49.255 43.036 49.255V49.153C43.036 49.052 43.036 49.052 43.036 48.952V48.85C43.036 48.75 43.036 48.649 43.036 48.547V22.203V15.743H36.777C36.474 15.743 36.1721 15.44 36.1721 15.138V8.88H19.316C19.316 8.981 19.316 8.981 19.316 9.082C19.316 9.283 19.316 9.385 19.316 9.586C19.316 9.788 19.316 9.889 19.316 10.091C19.316 10.293 19.3161 10.394 19.2151 10.495C19.2151 10.596 19.215 10.798 19.114 10.898C19.114 10.898 19.114 10.898 19.114 10.999C19.114 11.101 19.0131 11.303 19.0131 11.403C19.0131 11.403 19.0131 11.403 19.0131 11.504C19.0131 11.606 18.912 11.807 18.912 11.908C18.912 11.908 18.912 11.908 18.912 12.009C18.912 12.11 18.811 12.312 18.811 12.412C18.811 12.412 18.811 12.412 18.811 12.514C18.811 12.615 18.7101 12.817 18.7101 12.917C18.7101 12.917 18.7101 12.917 18.7101 13.019C18.6091 13.12 18.6091 13.322 18.5081 13.422C18.5081 13.422 18.5081 13.422 18.5081 13.523H30.923C31.226 13.523 31.528 13.826 31.528 14.129V21.9C31.528 22.203 31.225 22.505 30.923 22.505H9.72705V52.785H44.953C44.651 52.585 44.45 52.384 44.247 52.182ZM14.774 31.793H26.281C26.584 31.793 26.886 32.096 26.886 32.398C26.886 32.7 26.583 33.003 26.281 33.003H14.774C14.471 33.003 14.169 32.7 14.169 32.398C14.169 32.096 14.471 31.793 14.774 31.793ZM37.787 45.217H14.774C14.471 45.217 14.169 44.914 14.169 44.612C14.169 44.309 14.472 44.107 14.774 44.107H37.787C38.09 44.107 38.3921 44.411 38.3921 44.713C38.3931 45.016 38.09 45.217 37.787 45.217ZM37.787 41.18H14.774C14.471 41.18 14.169 40.877 14.169 40.575C14.169 40.272 14.472 39.97 14.774 39.97H37.787C38.09 39.97 38.3921 40.273 38.3921 40.575C38.3931 40.877 38.09 41.18 37.787 41.18ZM37.787 37.042H14.774C14.471 37.042 14.169 36.738 14.169 36.436C14.169 36.134 14.472 35.831 14.774 35.831H37.787C38.09 35.831 38.3921 36.134 38.3921 36.436C38.3921 36.738 38.09 37.042 37.787 37.042Z" fill="#B7FF00"/>
<path d="M44.0452 22.8101V48.5481C44.0452 48.6501 44.0452 48.6501 44.0452 48.7501V48.8501V48.9521V49.0531V49.1541V49.256C44.0452 49.256 44.0452 49.2561 44.0452 49.3571V49.4581C44.2472 50.2661 44.6502 51.073 45.3582 51.679L45.4592 51.7811L45.5612 51.882L45.6612 51.9821L45.7622 52.084C45.8642 52.185 46.0652 52.2851 46.2672 52.3871C46.2672 52.3871 46.3682 52.3871 46.3682 52.4881C46.3682 52.4881 46.4702 52.4881 46.4702 52.5891C46.4702 52.5891 46.4702 52.5891 46.5702 52.5891H46.6712C46.6712 52.5891 46.6712 52.5891 46.7732 52.5891H46.8742C46.8742 52.5891 46.8742 52.5891 46.9762 52.5891H47.0772H47.1782H47.2802C47.5832 52.691 47.8852 52.6911 48.1882 52.6911C48.4912 52.6911 48.7932 52.691 49.0962 52.5891C51.1142 52.1861 52.6282 50.3691 52.6282 48.2491V22.813H44.0452V22.8101Z" fill="#B7FF00"/>
<path d="M37.1821 9.68896V14.534H42.0271L37.1821 9.68896Z" fill="#B7FF00"/>
</svg>
