<svg xmlns="http://www.w3.org/2000/svg" width="18" height="17" viewBox="0 0 18 17" fill="none">
    <path d="M17.4697 5.95881C17.4695 4.77033 17.0091 3.65111 16.167 2.80905L16.1661 2.80815C15.3252 1.97151 14.2065 1.50636 13.0202 1.50636C11.8342 1.50636 10.7111 1.97128 9.8695 2.81286L9.01472 3.66764C9.0118 3.67056 9.00981 3.67153 9.00875 3.67196C9.00737 3.67252 9.00571 3.67288 9.00385 3.67288C9.00198 3.67288 9.00033 3.67252 8.99895 3.67196C8.99789 3.67153 8.9959 3.67056 8.99298 3.66764L8.13057 2.80523C7.2888 1.96347 6.16563 1.49873 4.97609 1.49873C3.78995 1.49873 2.67071 1.96376 1.83305 2.80142L2.18659 3.15496L1.83396 2.80051C0.990656 3.63951 0.530365 4.75968 0.530365 5.94827C0.530365 7.13833 0.99547 8.25753 1.83687 9.09893L8.64075 15.9028L8.99362 16.2557L9.34717 15.9035L16.1663 9.11107L16.167 9.11038C17.0082 8.26923 17.4738 7.14984 17.4697 5.95881ZM17.4697 5.95881C17.4697 5.95851 17.4697 5.95821 17.4697 5.95791L16.9697 5.95971H17.4697C17.4697 5.95941 17.4697 5.95911 17.4697 5.95881ZM8.6522 3.28338L9.00576 3.63693L9.35931 3.28338L9.85157 2.79112C10.7005 1.9422 11.825 1.47605 13.024 1.47605C14.2235 1.47605 15.3441 1.93879 16.1926 2.7873C17.0408 3.63556 17.5035 4.75936 17.5 5.95828V5.95971C17.5 7.1585 17.034 8.28286 16.1853 9.13173C16.1852 9.13186 16.1851 9.13199 16.1849 9.13212L9.00393 16.2864L9.00338 16.287C9.00316 16.2871 9.00253 16.2875 9.00132 16.288C8.99938 16.2888 8.9973 16.2892 8.99565 16.2894C8.99515 16.2892 8.99439 16.289 8.9934 16.2886C8.99029 16.2873 8.98744 16.2854 8.98534 16.2833L1.81894 9.11686C0.969033 8.26695 0.500051 7.14585 0.500053 5.94827L0.500049 5.94683C0.496617 4.7489 0.962356 3.62481 1.81131 2.77586C2.65635 1.93081 3.78085 1.4646 4.97609 1.4646C6.17448 1.4646 7.30298 1.93416 8.15231 2.78349L8.6522 3.28338Z" fill="white" stroke="black"/>
</svg>