<svg width="48" height="48" viewBox="0 0 48 48" fill="none" xmlns="http://www.w3.org/2000/svg">
<path d="M19.1833 44.427H20.456H27.5461H28.8187V40.1217H19.1833V44.427Z" fill="#B7FF00"/>
<path d="M24.0018 14.2899C17.4558 14.2899 12.0923 19.6943 12.0923 26.2902C12.0923 30.8704 14.7285 35.0841 18.9103 37.0988C19.0914 37.1913 19.1832 37.3738 19.1832 37.5571V39.1144H21.3646V25.3745C21.3646 25.0995 21.6376 24.8245 21.9096 24.8245C22.1825 24.8245 22.4553 25.1004 22.4553 25.3745V39.1144H25.4555V25.3745C25.4555 25.0995 25.7284 24.8245 26.0013 24.8245C26.2751 24.8245 26.5471 25.1004 26.5471 25.3745V39.1144H28.8185V37.5571C28.8185 37.3738 28.9104 37.1913 29.0915 37.0988C33.0913 35.1757 35.7285 31.1445 35.9095 26.7484C35.9095 26.7484 35.9095 26.7485 35.9095 26.6568C35.9095 26.4735 35.9095 26.3809 35.9095 26.1985C35.9104 19.6026 30.546 14.2899 24.0018 14.2899ZM32.0015 26.7476C31.7286 26.7476 31.4566 26.4726 31.4566 26.1985C31.4566 22.0765 28.0935 18.6878 24.0027 18.6878C19.911 18.6878 16.5479 22.0765 16.5479 26.1985C16.5479 26.4735 16.275 26.7476 16.003 26.7476C15.7301 26.7476 15.4581 26.4726 15.4581 26.1985C15.4581 21.4349 19.276 17.5879 23.9126 17.5879C28.6402 17.5879 32.3671 21.4349 32.3671 26.1985C32.4563 26.4735 32.2735 26.7476 32.0015 26.7476Z" fill="#B7FF00"/>
<path d="M27.0929 45.5261H21.0017V48.0001H27.0929V45.5261Z" fill="#B7FF00"/>
<path d="M46.1834 17.2212C46.0915 17.1287 46.0014 16.9462 46.0014 16.7629C46.0924 16.3046 46.1834 15.7556 46.1834 15.2973C46.1834 11.4503 43.0014 8.2449 39.0925 8.2449C38.1828 8.2449 37.2749 8.42729 36.4553 8.79393C36.2742 8.88559 36.0923 8.79395 35.9104 8.70229C35.7294 8.60972 35.7294 8.42638 35.7294 8.15231C35.8194 7.78658 35.8194 7.41994 35.8194 7.0533C35.8194 3.20629 32.6374 0 28.7285 0C26.2742 0 24.0928 1.19068 22.7283 3.29795C22.5472 3.57293 22.2743 3.6637 22.0014 3.48038C21.0918 2.93133 20.001 2.56469 18.9103 2.56469C16.0012 2.56469 13.546 4.67104 13.0011 7.51069C13.0011 7.78567 12.7282 7.96899 12.4553 7.96899H12.3643C9.09128 7.96899 6.45594 10.6253 6.45594 13.9224C6.45594 14.2881 6.45595 14.5631 6.54692 14.9297C6.54692 15.1131 6.54691 15.2047 6.45594 15.388C6.36407 15.4797 6.18303 15.5704 6.0011 15.5704H5.90924C2.63712 15.5704 0 18.2277 0 21.5256C0 24.8227 2.63712 27.479 5.90924 27.479H10.9998C10.9998 27.3864 10.9998 27.2957 10.9998 27.204C10.9998 27.0207 10.9998 26.929 10.9998 26.7457V26.6541C10.9998 26.4708 10.9998 26.3782 10.9998 26.1958C10.9998 19.0508 16.8181 13.1882 24.0009 13.1882C31.1828 13.1882 37.0002 19.0508 37.0002 26.1958C37.0002 26.2874 37.0002 26.4707 37.0002 26.5615V26.6541C37.0002 26.7457 37.0002 26.929 37.0002 27.0198V27.1115C37.0002 27.204 37.0002 27.204 37.0002 27.2948H42.0908C45.3629 27.2948 48 24.6384 48 21.3405C48.0009 19.8776 47.3642 18.4119 46.1834 17.2212Z" fill="#B7FF00"/>
</svg>
