<svg xmlns="http://www.w3.org/2000/svg" width="31" height="30" viewBox="0 0 31 30" fill="none">
    <g clip-path="url(#clip0)">
        <path d="M5.10336 19.2234C4.93353 19.5622 4.99967 19.9716 5.26724 20.2394L5.48216 20.4543C6.10311 19.7185 6.82684 18.9199 7.7046 18.0424C7.76663 17.9804 7.83048 17.9504 7.89274 17.8932L6.51006 16.5103C5.70623 17.9641 5.23748 18.9575 5.10336 19.2234Z" fill="url(#paint0_linear)"/>
        <path d="M12.6764 23.0141C11.7966 23.8939 11 24.619 10.2683 25.2404L10.5594 25.5315C10.8295 25.8016 11.2429 25.8666 11.5828 25.6918C12.038 25.4572 12.754 25.1202 14.2737 24.2738L12.8258 22.8259C12.7686 22.8884 12.7386 22.952 12.6764 23.0141Z" fill="url(#paint1_linear)"/>
        <path d="M12.2078 18.5119C11.5726 17.8767 9.78641 18.4462 8.94733 19.285C6.14032 22.0921 4.87255 24.0822 4.30332 25.2573C4.14013 25.5939 4.2081 25.997 4.47269 26.2616C4.73774 26.5269 5.14148 26.5942 5.4784 26.431C6.62716 25.8732 8.59302 24.6114 11.4334 21.7712C12.3561 20.8481 12.8113 19.1157 12.2084 18.5126L12.2078 18.5119Z" fill="url(#paint2_linear)"/>
        <path d="M3.46721 11.7018L0.981322 14.1877C0.700256 14.4688 0.642577 14.9039 0.841705 15.2486C1.03603 15.5887 1.44298 15.7619 1.83025 15.6583C3.17378 15.298 4.35596 15.1458 5.15201 15.3499C6.28451 13.3365 7.50148 11.483 8.79031 9.79934C8.04484 9.32143 5.58139 9.58762 3.46721 11.7018Z" fill="url(#paint3_linear)"/>
        <path d="M15.6005 29.9057C15.939 30.0769 16.3489 30.0107 16.617 29.7425L19.1031 27.2566C21.0277 25.3315 21.3665 22.8476 20.9298 22.0601C19.052 23.4752 17.1498 24.6702 15.375 25.6707C15.4975 26.3621 15.416 27.033 15.1265 28.9922C15.0699 29.3715 15.2659 29.7384 15.6005 29.9057Z" fill="url(#paint4_linear)"/>
        <path d="M18.1732 8.81651C17.1452 9.84465 17.1452 11.5171 18.1732 12.5452C19.2013 13.5734 20.874 13.5734 21.9021 12.5452C22.9302 11.5171 22.9302 9.84465 21.9021 8.81651C20.874 7.78838 19.2013 7.78838 18.1732 8.81651Z" fill="url(#paint5_linear)"/>
        <path d="M30.6722 0.857315C30.6407 0.422669 30.2946 0.079117 29.8613 0.0466158C27.7027 -0.11589 25.5526 0.149613 23.4451 0.794144C23.6037 2.24205 24.3526 3.80897 25.6311 5.08751C26.925 6.38115 28.5345 7.12982 30.0083 7.2699C30.5759 5.28068 30.8451 3.15025 30.6722 0.857315Z" fill="url(#paint6_linear)"/>
        <path d="M24.3883 6.33063C22.9257 4.86807 22.0327 3.11392 21.7461 1.40601C16.4683 3.57054 11.416 8.29741 7.42358 14.9377L9.40707 16.9212C10.7623 16.371 12.4075 16.2256 13.451 17.2689C14.4958 18.314 14.3477 19.9585 13.7977 21.3119L15.8464 23.3606C20.9555 20.2814 26.9037 15.4303 29.4331 8.97604C27.6835 8.71169 25.8747 7.81699 24.3883 6.33063ZM23.145 13.7883C21.4318 15.5015 18.6438 15.5015 16.9304 13.7883C15.217 12.0749 15.217 9.28664 16.9304 7.57346C18.6438 5.86028 21.4318 5.86028 23.145 7.57346C24.8584 9.28687 24.8584 12.0749 23.145 13.7883Z" fill="url(#paint7_linear)"/>
    </g>
    <defs>
        <linearGradient id="paint0_linear" x1="6.45137" y1="16.5103" x2="6.45137" y2="20.4543" gradientUnits="userSpaceOnUse">
            <stop stop-color="#21DDB9"/>
            <stop offset="1" stop-color="#0189F5"/>
        </linearGradient>
        <linearGradient id="paint1_linear" x1="12.271" y1="22.8259" x2="12.271" y2="25.7891" gradientUnits="userSpaceOnUse">
            <stop stop-color="#21DDB9"/>
            <stop offset="1" stop-color="#0189F5"/>
        </linearGradient>
        <linearGradient id="paint2_linear" x1="8.3485" y1="18.2402" x2="8.3485" y2="26.5191" gradientUnits="userSpaceOnUse">
            <stop stop-color="#21DDB9"/>
            <stop offset="1" stop-color="#0189F5"/>
        </linearGradient>
        <linearGradient id="paint3_linear" x1="4.75709" y1="9.59668" x2="4.75709" y2="15.6881" gradientUnits="userSpaceOnUse">
            <stop stop-color="#21DDB9"/>
            <stop offset="1" stop-color="#0189F5"/>
        </linearGradient>
        <linearGradient id="paint4_linear" x1="18.108" y1="22.0601" x2="18.108" y2="30" gradientUnits="userSpaceOnUse">
            <stop stop-color="#21DDB9"/>
            <stop offset="1" stop-color="#0189F5"/>
        </linearGradient>
        <linearGradient id="paint5_linear" x1="20.0377" y1="8.04541" x2="20.0377" y2="13.3163" gradientUnits="userSpaceOnUse">
            <stop stop-color="#21DDB9"/>
            <stop offset="1" stop-color="#0189F5"/>
        </linearGradient>
        <linearGradient id="paint6_linear" x1="27.0846" y1="0" x2="27.0846" y2="7.2699" gradientUnits="userSpaceOnUse">
            <stop stop-color="#21DDB9"/>
            <stop offset="1" stop-color="#0189F5"/>
        </linearGradient>
        <linearGradient id="paint7_linear" x1="18.4283" y1="1.40601" x2="18.4283" y2="23.3606" gradientUnits="userSpaceOnUse">
            <stop stop-color="#21DDB9"/>
            <stop offset="1" stop-color="#0189F5"/>
        </linearGradient>
        <clipPath id="clip0">
            <path d="M0.723877 0H30.7239V30H0.723877V0Z" fill="white"/>
        </clipPath>
    </defs>
</svg>