<svg xmlns="http://www.w3.org/2000/svg" width="18" height="18" viewBox="0 0 18 18" fill="none">
    <g clip-path="url(#clip0)">
        <path d="M7.62111 3.16113C7.1304 3.16113 6.73236 3.55947 6.73236 4.04988C6.73236 4.54119 7.1304 4.93863 7.62111 4.93863C8.7071 4.93863 9.67694 5.54519 10.1531 6.52276C10.3073 6.83821 10.6233 7.02179 10.9524 7.02179C11.0834 7.02179 11.2162 6.99297 11.3413 6.93178C11.7827 6.71702 11.9662 6.18502 11.7509 5.74332C10.9747 4.15058 9.39178 3.16113 7.62111 3.16113Z" fill="#C4C4C4"/>
        <path d="M17.1829 15.3684L14.2211 12.4063C15.0979 11.173 15.6186 9.66968 15.6186 8.04427C15.6186 3.87826 12.2294 0.489014 8.06339 0.489014C3.89737 0.489014 0.508423 3.87826 0.508423 8.04427C0.508423 12.21 3.89737 15.5992 8.06339 15.5992C9.80375 15.5992 11.4036 15.0022 12.6821 14.0098L15.6115 16.9392C15.8284 17.156 16.1132 17.2647 16.3972 17.2647C16.6818 17.2647 16.966 17.1563 17.1829 16.9392C17.6168 16.5058 17.6168 15.8024 17.1829 15.3684ZM2.28652 8.04457C2.28652 4.8588 4.8785 2.26711 8.06398 2.26711C11.2495 2.26711 13.8414 4.8588 13.8414 8.04457C13.8414 9.36997 13.3885 10.589 12.6346 11.5651C12.3853 11.8874 12.1055 12.1847 11.7948 12.4482C10.7873 13.3031 9.48592 13.822 8.06398 13.822C4.87821 13.8217 2.28652 11.23 2.28652 8.04457Z" fill="#C4C4C4"/>
    </g>
    <defs>
        <clipPath id="clip0">
            <rect x="0.508423" y="0.376953" width="17" height="17" fill="white"/>
        </clipPath>
    </defs>
</svg>