<svg width="24" height="14" viewBox="0 0 24 14" fill="none" xmlns="http://www.w3.org/2000/svg">
<path d="M19.9871 0C19.3328 0 18.7821 0.126589 18.5128 1.02508C18.1538 2.22308 16.5888 4.85765 15.7017 6.17747C15.0702 7.11699 14.2332 6.46338 14.183 6.06072C14.0562 5.04547 14.183 1.16722 14.183 1.16722C14.183 0.403436 13.6913 0.00983519 13.148 0.00983519H9.08937C8.42433 0.00983519 8.08975 0.786572 9.0435 1.35377C9.87054 1.84562 10.093 1.87546 10.093 2.56826V6.95468C10.093 7.32963 9.50521 7.7508 9.01577 7.26941C8.28343 6.54911 5.7631 1.45149 5.7631 1.45149C5.7631 1.45149 5.098 0.00983519 3.32426 0.00983519H0.546485C0.239391 0.00983519 -0.17517 0.392818 0.0788475 0.868989C0.0788475 0.868989 3.10182 7.88816 5.86871 10.7715C8.63559 13.6548 10.9378 14 10.9378 14H13.3804C13.3804 14 14.2358 14.0203 14.2358 13.1776V10.7715C14.1985 10.1976 15.0024 9.76363 15.7017 10.4929L18.2788 13.1805C18.9152 13.8228 19.6546 14 20.3652 14H23.42C23.8903 14 24.3589 13.421 23.5972 12.6887L19.8927 8.61914C19.8927 8.61914 19.3013 8.11152 19.8082 7.33993C20.3151 6.56834 22.8758 1.77637 23.0025 1.45149C23.3441 0.76204 23.1073 0.00983519 22.2577 0.00983519C22.2577 0.00983519 20.0957 -7.26608e-07 19.9871 0Z" fill="white"/>
</svg>
